<?xml version="1.0" standalone="no"?>
<!DOCTYPE svg PUBLIC "-//W3C//DTD SVG 20010904//EN"
 "http://www.w3.org/TR/2001/REC-SVG-20010904/DTD/svg10.dtd">
<svg version="1.0" xmlns="http://www.w3.org/2000/svg"
 width="820.000000pt" height="426.000000pt" viewBox="0 0 820.000000 426.000000"
 preserveAspectRatio="xMidYMid meet">

<g transform="translate(0.000000,426.000000) scale(0.100000,-0.100000)"
fill="#000000" stroke="none">
<path d="M5826 3093 c-69 -11 -120 -65 -465 -493 -485 -602 -697 -899 -870
-1218 -69 -127 -141 -275 -141 -290 0 -4 34 58 75 137 113 216 318 519 484
711 93 109 306 344 419 463 59 62 154 166 212 232 58 66 149 169 203 229 127
141 163 194 150 215 -11 18 -24 20 -67 14z"/>
<path d="M2980 2868 c0 -4 58 -97 128 -205 153 -235 297 -469 376 -610 32 -57
60 -103 63 -103 2 0 -40 87 -94 193 -120 233 -286 512 -357 598 -71 86 -115
135 -116 127z"/>
<path d="M2185 2624 c28 -28 138 -121 245 -209 107 -87 255 -210 329 -274 183
-158 227 -193 156 -126 -137 131 -485 429 -675 580 -102 81 -113 87 -55 29z"/>
<path d="M2562 2570 c9 -14 168 -179 355 -365 186 -187 384 -394 439 -460 179
-217 195 -233 87 -90 -177 234 -672 757 -873 920 l-24 20 16 -25z"/>
<path d="M2188 2510 c29 -27 137 -113 240 -191 386 -294 574 -452 806 -678
129 -125 129 -125 46 -33 -143 160 -427 416 -690 622 -181 143 -434 330 -445
330 -5 -1 14 -23 43 -50z"/>
<path d="M5604 2511 c3 -5 -2 -12 -11 -16 -10 -3 -19 -2 -21 4 -5 14 -50 -28
-255 -234 -310 -312 -544 -579 -681 -775 -64 -92 -147 -226 -99 -160 101 139
250 308 412 470 184 183 307 300 316 300 2 0 28 24 57 53 101 97 173 162 188
169 9 4 10 7 3 7 -13 1 32 51 46 51 4 0 14 11 21 25 8 14 20 23 27 21 7 -3 13
0 14 7 0 7 2 22 5 35 3 16 0 21 -8 16 -10 -6 -11 -4 0 7 16 18 15 29 -4 29 -8
0 -13 -4 -10 -9z"/>
<path d="M2040 2481 c0 -13 151 -145 211 -186 387 -262 728 -518 928 -698 37
-33 19 -13 -39 43 -194 188 -521 450 -904 722 -151 107 -196 134 -196 119z"/>
<path d="M5923 2425 c-36 -15 -453 -345 -688 -544 -272 -230 -537 -507 -693
-725 -50 -70 -32 -55 34 27 201 251 492 514 854 773 69 49 134 97 145 107 11
10 40 31 65 45 24 15 52 34 61 43 9 9 38 29 63 44 25 15 46 31 46 35 0 5 8 11
18 14 9 3 33 21 53 38 19 18 50 45 68 60 32 25 33 28 21 62 -6 20 -12 36 -13
36 -1 -1 -16 -7 -34 -15z"/>
<path d="M3229 2415 c5 -11 17 -29 26 -40 l16 -20 -10 20 c-5 11 -17 29 -26
40 l-16 20 10 -20z"/>
<path d="M3282 2328 c8 -13 52 -86 98 -163 87 -146 128 -204 70 -100 -52 93
-171 285 -177 285 -3 0 1 -10 9 -22z"/>
<path d="M1963 2215 c40 -40 114 -87 257 -164 578 -313 873 -513 1171 -795 47
-45 21 -18 -56 60 -216 213 -437 383 -815 625 -158 102 -367 227 -439 264 -19
10 -57 19 -84 22 -45 4 -48 3 -34 -12z"/>
<path d="M5290 2021 c-493 -384 -813 -765 -1003 -1196 -72 -163 -64 -161 20 5
89 177 211 367 334 520 153 190 474 505 737 723 51 42 89 77 85 77 -4 0 -82
-58 -173 -129z"/>
<path d="M5925 1996 c-454 -234 -749 -425 -1029 -666 -116 -100 -279 -268
-350 -361 l-48 -64 47 55 c97 111 343 348 450 432 228 178 506 354 910 575
189 105 238 133 225 133 -3 0 -95 -47 -205 -104z"/>
<path d="M3500 1960 c11 -22 23 -40 25 -40 3 0 -4 18 -15 40 -11 22 -23 40
-25 40 -3 0 4 -18 15 -40z"/>
<path d="M3326 1962 c4 -22 47 -95 114 -192 228 -332 378 -601 469 -840 50
-131 52 -115 5 33 -110 341 -320 796 -413 892 -77 81 -134 128 -156 131 -20 2
-23 -2 -19 -24z"/>
<path d="M2066 1945 c-8 -21 -8 -25 2 -23 4 1 25 -9 47 -23 22 -14 79 -40 127
-58 48 -19 89 -38 90 -43 2 -5 10 -10 18 -12 8 -1 33 -10 55 -20 22 -11 78
-36 125 -58 266 -122 482 -241 657 -360 102 -70 116 -77 68 -33 -192 174 -510
381 -830 541 -93 46 -188 87 -210 90 -122 17 -142 17 -149 -1z"/>
<path d="M6460 1846 c-304 -113 -528 -201 -690 -271 -123 -53 -301 -138 -297
-142 2 -2 39 13 83 33 124 57 428 175 679 263 258 91 465 170 480 183 5 4 17
8 26 8 9 0 27 9 40 20 23 18 23 19 4 19 -11 0 -157 -51 -325 -113z"/>
<path d="M2066 1763 c-6 -14 -9 -15 -15 -4 -7 11 -15 11 -41 2 -41 -14 -43
-14 -34 1 4 7 3 8 -4 4 -8 -5 -9 -13 -3 -25 8 -15 6 -17 -18 -13 -26 4 -28 1
-24 -21 4 -19 13 -27 39 -32 19 -3 32 -10 29 -16 -4 -5 -1 -9 5 -9 6 0 8 -4 5
-10 -3 -5 1 -10 9 -10 9 0 16 -5 16 -11 0 -5 4 -8 8 -5 4 2 26 -3 47 -13 22
-10 43 -18 48 -19 4 -1 23 -8 42 -16 19 -8 35 -12 35 -9 0 3 6 0 13 -6 8 -6
17 -8 20 -4 4 3 7 2 7 -4 0 -5 6 -10 13 -11 44 -5 84 -16 96 -25 7 -6 24 -13
38 -15 14 -1 58 -16 99 -32 41 -17 81 -30 89 -30 7 0 20 -6 27 -12 13 -12 21
-16 59 -23 9 -2 37 -13 62 -24 25 -12 53 -21 62 -21 9 0 14 -4 11 -8 -2 -4 7
-9 21 -10 15 -1 35 -9 45 -19 10 -9 18 -13 18 -10 0 8 204 -94 208 -105 2 -4
7 -6 11 -3 5 2 23 -7 41 -20 19 -14 39 -25 45 -25 7 0 22 -9 35 -20 13 -11 27
-20 31 -20 28 0 257 -170 383 -284 83 -75 88 -78 59 -36 -128 187 -408 433
-673 592 -209 125 -564 291 -745 348 -22 7 -49 17 -60 21 -11 5 -46 11 -77 13
-31 2 -61 7 -66 10 -6 3 -13 -2 -16 -11z"/>
<path d="M5590 1644 c-367 -193 -658 -402 -885 -635 l-100 -103 121 116 c260
246 493 408 924 642 47 25 81 46 75 46 -5 0 -66 -30 -135 -66z"/>
<path d="M3380 1485 c13 -14 26 -25 28 -25 3 0 -5 11 -18 25 -13 14 -26 25
-28 25 -3 0 5 -11 18 -25z"/>
<path d="M1058 1413 c6 -2 18 -2 25 0 6 3 1 5 -13 5 -14 0 -19 -2 -12 -5z"/>
<path d="M1158 1403 c7 -3 16 -2 19 1 4 3 -2 6 -13 5 -11 0 -14 -3 -6 -6z"/>
<path d="M6765 1269 c-850 -92 -1196 -166 -1600 -346 -113 -51 -337 -181 -387
-225 -32 -29 -32 -29 -3 -10 50 32 265 138 350 172 169 68 352 121 536 155
137 25 378 55 446 54 23 0 44 5 47 10 4 6 39 9 84 7 42 -2 68 0 57 4 -12 5 12
9 65 12 52 2 88 0 92 -6 4 -6 10 -3 14 8 5 14 9 15 15 4 7 -9 11 -10 17 -2 10
17 69 27 77 15 3 -6 12 -11 18 -11 7 0 6 4 -3 10 -15 10 42 14 133 11 21 -1
36 3 33 8 -3 5 13 11 37 14 58 7 168 48 195 73 14 13 20 27 16 37 -5 14 -20
17 -83 16 -42 -1 -112 -5 -156 -10z"/>
<path d="M1109 1249 c-9 -17 -8 -23 2 -30 36 -22 227 -45 499 -59 636 -34
1056 -103 1395 -230 71 -27 131 -47 133 -46 5 6 -202 93 -298 126 -329 110
-705 174 -1420 240 -279 26 -296 26 -311 -1z"/>
<path d="M3924 1243 c9 -71 104 -418 112 -410 11 10 -40 284 -61 334 -14 30
-25 60 -25 65 0 5 -7 16 -15 24 -12 13 -14 11 -11 -13z"/>
<path d="M4336 1065 c-9 -26 -7 -32 5 -12 6 10 9 21 6 23 -2 3 -7 -2 -11 -11z"/>
<path d="M1930 927 c-9 -9 -62 -20 -102 -21 -25 -1 -38 -6 -38 -15 0 -8 -6
-11 -15 -7 -8 3 -23 9 -32 12 -15 5 -16 4 -3 -5 13 -9 13 -11 -2 -11 -10 0
-18 -6 -19 -12 0 -7 -4 -4 -9 7 -7 17 -9 17 -9 3 -1 -10 -4 -17 -8 -16 -5 1
-18 -3 -29 -10 -12 -6 -24 -9 -27 -6 -3 3 -24 -6 -46 -20 -23 -15 -41 -21 -41
-16 0 6 -5 8 -10 5 -6 -4 -8 -10 -5 -15 3 -4 -2 -13 -10 -20 -13 -11 -14 -10
-9 6 5 16 4 16 -5 4 -18 -25 -12 -32 24 -28 43 5 47 -7 5 -15 -22 -5 -30 -12
-30 -27 0 -12 4 -19 9 -15 5 3 12 1 15 -4 3 -5 -3 -11 -14 -14 -11 -3 -20 -10
-20 -15 0 -7 11 -6 30 1 18 7 28 17 26 24 -3 7 -1 13 5 13 6 0 13 -9 16 -19 3
-14 12 -18 31 -16 15 2 38 -3 50 -12 13 -8 26 -12 29 -9 3 2 16 1 29 -4 18 -7
22 -6 18 5 -5 11 0 12 25 5 19 -5 31 -5 31 1 0 5 11 9 25 9 14 0 25 -5 25 -11
0 -5 -5 -7 -12 -3 -7 4 -8 3 -4 -5 6 -9 11 -9 21 -1 8 7 24 9 36 5 14 -5 19
-4 15 4 -4 6 -4 11 1 12 4 0 16 2 26 4 9 2 17 0 17 -4 0 -9 304 0 314 9 2 3
91 4 196 4 152 -1 194 -4 201 -15 6 -10 9 -10 9 -2 0 13 59 12 145 -3 22 -3
67 -8 100 -10 85 -5 89 -6 97 -18 5 -8 8 -7 8 2 0 10 5 10 23 1 12 -7 23 -12
25 -11 11 8 64 -1 76 -13 9 -9 17 -11 21 -5 4 6 13 7 23 1 9 -4 23 -6 30 -4 7
3 19 0 27 -7 8 -6 19 -9 25 -5 5 3 10 2 10 -3 0 -5 6 -9 13 -9 32 -3 107 -16
157 -28 30 -8 56 -12 58 -10 2 2 -28 25 -68 50 -230 149 -579 262 -960 310
-126 16 -531 32 -540 22z"/>
<path d="M4107 900 c-7 -27 -10 -476 -3 -469 2 2 7 76 11 164 4 88 8 186 10
218 2 32 0 70 -4 85 l-7 27 -7 -25z"/>
<path d="M4479 883 c-13 -16 -12 -17 4 -4 9 7 17 15 17 17 0 8 -8 3 -21 -13z"/>
<path d="M4569 863 l-24 -28 28 24 c25 23 32 31 24 31 -2 0 -14 -12 -28 -27z"/>
<path d="M3150 876 c0 -2 7 -7 16 -10 8 -3 12 -2 9 4 -6 10 -25 14 -25 6z"/>
<path d="M3190 856 c0 -2 7 -7 16 -10 8 -3 12 -2 9 4 -6 10 -25 14 -25 6z"/>
<path d="M4031 804 c0 -11 3 -14 6 -6 3 7 2 16 -1 19 -3 4 -6 -2 -5 -13z"/>
<path d="M3961 774 c0 -11 3 -14 6 -6 3 7 2 16 -1 19 -3 4 -6 -2 -5 -13z"/>
<path d="M5960 763 c19 -2 105 -10 190 -19 169 -16 422 -51 650 -89 173 -29
419 -42 432 -23 6 10 10 10 17 -2 6 -8 13 -11 16 -8 12 11 -5 28 -43 44 -75
31 -912 105 -1158 102 -76 0 -123 -3 -104 -5z"/>
<path d="M1455 710 c-3 -5 -2 -10 4 -10 5 0 13 5 16 10 3 6 2 10 -4 10 -5 0
-13 -4 -16 -10z"/>
<path d="M1455 670 c3 -5 8 -10 11 -10 2 0 4 5 4 10 0 6 -5 10 -11 10 -5 0 -7
-4 -4 -10z"/>
<path d="M1631 654 c0 -11 3 -14 6 -6 3 7 2 16 -1 19 -3 4 -6 -2 -5 -13z"/>
<path d="M4216 655 c-9 -26 -7 -32 5 -12 6 10 9 21 6 23 -2 3 -7 -2 -11 -11z"/>
<path d="M1605 650 c3 -5 8 -10 11 -10 2 0 4 5 4 10 0 6 -5 10 -11 10 -5 0 -7
-4 -4 -10z"/>
<path d="M5440 650 c-129 -13 -272 -39 -400 -71 -114 -28 -294 -88 -287 -95 2
-2 30 5 63 16 94 33 279 77 404 97 92 14 174 18 405 18 414 0 611 -25 1489
-186 59 -11 110 -18 113 -16 5 6 10 5 -352 82 -333 71 -576 115 -775 140 -146
19 -538 28 -660 15z"/>
<path d="M5285 500 c-219 -16 -427 -59 -622 -129 -99 -35 -193 -81 -168 -81 6
0 35 4 66 9 53 9 218 23 414 36 144 10 891 7 1073 -4 92 -6 232 -13 312 -16
80 -3 217 -10 305 -15 88 -5 223 -12 300 -15 77 -3 239 -10 360 -15 121 -6
261 -9 310 -9 80 1 62 4 -160 30 -241 28 -533 66 -985 129 -503 70 -944 100
-1205 80z"/>
<path d="M2545 474 c-174 -14 -347 -33 -895 -99 -339 -41 -697 -84 -795 -95
l-180 -20 155 5 c85 3 301 14 480 25 1099 66 1568 81 1990 61 135 -6 272 -14
305 -17 81 -8 59 6 -75 50 -119 39 -224 61 -355 76 -95 11 -545 21 -630 14z"/>
<path d="M4710 470 c-8 -5 -10 -10 -5 -10 6 0 17 5 25 10 8 5 11 10 5 10 -5 0
-17 -5 -25 -10z"/>
<path d="M7727 459 c12 -12 25 -20 28 -17 3 3 -7 13 -22 23 l-28 17 22 -23z"/>
<path d="M7771 426 c19 -19 198 -144 184 -129 -16 17 -174 133 -182 133 -3 0
-4 -2 -2 -4z"/>
<path d="M364 378 c-43 -32 -49 -38 -38 -38 10 1 83 59 73 60 -4 0 -19 -10
-35 -22z"/>
<path d="M2390 299 c-310 -7 -1111 -35 -1455 -49 -168 -7 -157 -8 90 -4 154 3
600 14 990 24 391 11 854 23 1030 26 176 4 322 8 324 10 7 6 -646 1 -979 -7z"/>
<path d="M230 280 c-9 -6 -10 -10 -3 -10 6 0 15 5 18 10 8 12 4 12 -15 0z"/>
<path d="M3395 283 c-55 -1 -287 -7 -515 -12 -228 -6 -541 -13 -695 -16 -154
-3 -361 -7 -460 -10 -915 -25 -1486 -28 -1552 -9 -16 4 -29 -1 -48 -20 -14
-14 -23 -31 -20 -36 10 -16 857 -8 2083 20 237 6 629 15 870 20 544 13 616 16
643 31 24 13 28 10 61 -50 36 -66 164 -104 353 -104 186 0 271 29 311 106 15
28 50 37 71 16 7 -7 235 -13 699 -19 379 -5 799 -11 934 -14 273 -7 1961 -9
1967 -3 2 2 0 12 -3 22 -13 32 -57 42 -146 32 -71 -7 -1966 0 -2060 8 -18 1
-341 4 -718 6 -558 3 -703 1 -783 -11 -89 -13 -107 -13 -205 4 -84 14 -133 16
-227 11 -100 -6 -129 -5 -175 10 -56 18 -161 23 -385 18z"/>
<path d="M493 233 c15 -2 39 -2 55 0 15 2 2 4 -28 4 -30 0 -43 -2 -27 -4z"/>
</g>
</svg>
